HIERARCHY
ROOT root
{
	OFFSET	0	13.1	24.9
	CHANNELS 6  Xposition Yposition Zposition Xrotation Yrotation Zrotation
	JOINT spine_1
	{
		OFFSET	0	9.99999	0
		CHANNELS 3  Xrotation Yrotation Zrotation
		JOINT spine_2
		{
			OFFSET	0	112	-10
			CHANNELS 3  Xrotation Yrotation Zrotation
			JOINT spine_3
			{
				OFFSET	0	206.5	19.3
				CHANNELS 3  Xrotation Yrotation Zrotation
				JOINT spine_4
				{
					OFFSET	0	110.4	14.6
					CHANNELS 3  Xrotation Yrotation Zrotation
					JOINT neck_1
					{
						OFFSET	0	71.8	-50.3
						CHANNELS 3  Xrotation Yrotation Zrotation
						JOINT neck_2
						{
							OFFSET	0	86.2	-25.8
							CHANNELS 3  Xrotation Yrotation Zrotation
							JOINT head_ee
							{
								OFFSET	0	179.8	-8.7
								CHANNELS 3  Xrotation Yrotation Zrotation
								End Site
								{
									OFFSET	1	0	0
								}
							}
						}
					}
					JOINT left_clavicle
					{
						OFFSET	-43.2	22.4	-70.8
						CHANNELS 3  Xrotation Yrotation Zrotation
						JOINT left_shoulder
						{
							OFFSET	-93.9	-5.79999	48.7
							CHANNELS 3  Xrotation Yrotation Zrotation
							JOINT left_elbow
							{
								OFFSET	-291.4	-30.8	15.2
								CHANNELS 3  Xrotation Yrotation Zrotation
								JOINT left_lowarm_twist
								{
									OFFSET	-110.7	-3.89999	13.6
									CHANNELS 3  Xrotation Yrotation Zrotation
									JOINT left_hand
									{
										OFFSET	-110.7	-3.89999	13.6
										CHANNELS 3  Xrotation Yrotation Zrotation
										JOINT left_ee
										{
											OFFSET	-80.8	-5.10001	12.1
											CHANNELS 3  Xrotation Yrotation Zrotation
											End Site
											{
												OFFSET	1	0	0
											}
										}
									}
								}
							}
						}
					}
					JOINT right_clavicle
					{
						OFFSET	43.2	22.4	-70.8
						CHANNELS 3  Xrotation Yrotation Zrotation
						JOINT right_shoulder
						{
							OFFSET	93.9	-5.79999	48.7
							CHANNELS 3  Xrotation Yrotation Zrotation
							JOINT right_elbow
							{
								OFFSET	291.4	-30.8	15.2
								CHANNELS 3  Xrotation Yrotation Zrotation
								JOINT right_lowarm_twist
								{
									OFFSET	110.7	-3.89999	13.6
									CHANNELS 3  Xrotation Yrotation Zrotation
									JOINT right_hand
									{
										OFFSET	110.7	-3.89999	13.6
										CHANNELS 3  Xrotation Yrotation Zrotation
										JOINT right_ee
										{
											OFFSET	80.8	-5.10001	12.1
											CHANNELS 3  Xrotation Yrotation Zrotation
											End Site
											{
												OFFSET	1	0	0
											}
										}
									}
								}
							}
						}
					}
				}
			}
		}
	}
	JOINT left_hip
	{
		OFFSET	-82.8	-127.5	0.300001
		CHANNELS 3  Xrotation Yrotation Zrotation
		JOINT left_knee
		{
			OFFSET	-28.2	-396.7	2.2
			CHANNELS 3  Xrotation Yrotation Zrotation
			JOINT left_ankle
			{
				OFFSET	-11.7	-411.3	35.4
				CHANNELS 3  Xrotation Yrotation Zrotation
				JOINT left_toes
				{
					OFFSET	0	-60	-88.6
					CHANNELS 3  Xrotation Yrotation Zrotation
					JOINT left_foot_ee
					{
						OFFSET	-22.5	-16.5	-42.2
						CHANNELS 3  Xrotation Yrotation Zrotation
						End Site
						{
							OFFSET	1	0	0
						}
					}
				}
			}
		}
	}
	JOINT right_hip
	{
		OFFSET	82.8	-127.5	0.300001
		CHANNELS 3  Xrotation Yrotation Zrotation
		JOINT right_knee
		{
			OFFSET	28.2	-396.7	2.2
			CHANNELS 3  Xrotation Yrotation Zrotation
			JOINT right_ankle
			{
				OFFSET	11.7	-411.3	35.4
				CHANNELS 3  Xrotation Yrotation Zrotation
				JOINT right_toes
				{
					OFFSET	0	-60	-88.6
					CHANNELS 3  Xrotation Yrotation Zrotation
					JOINT right_foot_ee
					{
						OFFSET	22.5	-16.5	-42.2
						CHANNELS 3  Xrotation Yrotation Zrotation
						End Site
						{
							OFFSET	1	0	0
						}
					}
				}
			}
		}
	}
}
MOTION
Frames: 14
Frame Time: 0.02
3574.42 741.953 -1474.73 -13.8017732279 78.2203050829 23.9056855694 1.7256 -0.481265 -5.53127 1.7426 -0.128873 -5.55062 1.75534 0.875543 -5.48285 1.71342 2.86148e-05 -5.55211 -12.2567 11.5284 12.1506 -11.9505 14.1207 14.856 -0.0 0.0 -0.0 6.6543 9.32616 12.786 -22.6077 -23.7096 65.4982 1.97246 -44.3315 0.803639 -80.0037 -7.82231 5.27969 -3.20785 19.0265 -11.622 -0.0 0.0 -0.0 -1.69424 20.8087 6.10489 -26.7821 21.2172 -70.4017 0.53187 14.7606 -0.0688923 25.3039 -0.187471 3.20076 3.07935 -12.5804 -25.5364 0.0 0.0 0.0 -7.44117 -17.1921 -9.20206 -5.71849 0.192851 0.856069 40.7173 10.5509 -4.94335 -20.8742 0.0 0.0 -0.0 0.0 -0.0 10.6611 11.0258 -13.571 -8.17195 -0.249211 -1.22833 10.6591 -19.0397 1.54089 2.21334 -0.0 -0.0 0.0 0.0 0.0 
3574.42 741.953 -1474.73 -13.6256133464 78.0687655275 23.7256862776 1.7256 -0.481265 -5.53127 1.7426 -0.128873 -5.55062 1.75534 0.875543 -5.48285 1.71342 2.86148e-05 -5.55211 -12.2567 11.5284 12.1506 -11.9505 14.1207 14.856 -0.0 0.0 -0.0 6.6543 9.32616 12.786 -22.6077 -23.7096 65.4982 1.97246 -44.3315 0.803639 -80.0037 -7.82231 5.27969 -3.20785 19.0265 -11.622 -0.0 0.0 -0.0 -1.69424 20.8087 6.10489 -26.7821 21.2172 -70.4017 0.53187 14.7606 -0.0688923 25.3039 -0.187471 3.20076 3.07935 -12.5804 -25.5364 0.0 0.0 0.0 -7.44117 -17.1921 -9.20206 -5.71849 0.192851 0.856069 40.7173 10.5509 -4.94335 -20.8742 0.0 0.0 -0.0 0.0 -0.0 10.6611 11.0258 -13.571 -8.17195 -0.249211 -1.22833 10.6591 -19.0397 1.54089 2.21334 -0.0 -0.0 0.0 0.0 0.0 
3574.42 741.953 -1474.73 -13.3535607096 77.8266251481 23.4475023729 1.7256 -0.481265 -5.53127 1.7426 -0.128873 -5.55062 1.75534 0.875543 -5.48285 1.71342 2.86148e-05 -5.55211 -12.2567 11.5284 12.1506 -11.9505 14.1207 14.856 -0.0 0.0 -0.0 6.6543 9.32616 12.786 -22.6077 -23.7096 65.4982 1.97246 -44.3315 0.803639 -80.0037 -7.82231 5.27969 -3.20785 19.0265 -11.622 -0.0 0.0 -0.0 -1.69424 20.8087 6.10489 -26.7821 21.2172 -70.4017 0.53187 14.7606 -0.0688923 25.3039 -0.187471 3.20076 3.07935 -12.5804 -25.5364 0.0 0.0 0.0 -7.44117 -17.1921 -9.20206 -5.71849 0.192851 0.856069 40.7173 10.5509 -4.94335 -20.8742 0.0 0.0 -0.0 0.0 -0.0 10.6611 11.0258 -13.571 -8.17195 -0.249211 -1.22833 10.6591 -19.0397 1.54089 2.21334 -0.0 -0.0 0.0 0.0 0.0 
3574.42 741.953 -1474.73 -12.556017681 77.0542220174 22.6304258052 1.7256 -0.481265 -5.53127 1.7426 -0.128873 -5.55062 1.75534 0.875543 -5.48285 1.71342 2.86148e-05 -5.55211 -12.2567 11.5284 12.1506 -11.9505 14.1207 14.856 -0.0 0.0 -0.0 6.6543 9.32616 12.786 -22.6077 -23.7096 65.4982 1.97246 -44.3315 0.803639 -80.0037 -7.82231 5.27969 -3.20785 19.0265 -11.622 -0.0 0.0 -0.0 -1.69424 20.8087 6.10489 -26.7821 21.2172 -70.4017 0.53187 14.7606 -0.0688923 25.3039 -0.187471 3.20076 3.07935 -12.5804 -25.5364 0.0 0.0 0.0 -7.44117 -17.1921 -9.20206 -5.71849 0.192851 0.856069 40.7173 10.5509 -4.94335 -20.8742 0.0 0.0 -0.0 0.0 -0.0 10.6611 11.0258 -13.571 -8.17195 -0.249211 -1.22833 10.6591 -19.0397 1.54089 2.21334 -0.0 -0.0 0.0 0.0 0.0 
3574.42 741.953 -1474.73 -11.8666500256 76.2998796429 21.9220076473 1.7256 -0.481265 -5.53127 1.7426 -0.128873 -5.55062 1.75534 0.875543 -5.48285 1.71342 2.86148e-05 -5.55211 -12.2567 11.5284 12.1506 -11.9505 14.1207 14.856 -0.0 0.0 -0.0 6.6543 9.32616 12.786 -22.6077 -23.7096 65.4982 1.97246 -44.3315 0.803639 -80.0037 -7.82231 5.27969 -3.20785 19.0265 -11.622 -0.0 0.0 -0.0 -1.69424 20.8087 6.10489 -26.7821 21.2172 -70.4017 0.53187 14.7606 -0.0688923 25.3039 -0.187471 3.20076 3.07935 -12.5804 -25.5364 0.0 0.0 0.0 -7.44117 -17.1921 -9.20206 -5.71849 0.192851 0.856069 40.7173 10.5509 -4.94335 -20.8742 0.0 0.0 -0.0 0.0 -0.0 10.6611 11.0258 -13.571 -8.17195 -0.249211 -1.22833 10.6591 -19.0397 1.54089 2.21334 -0.0 -0.0 0.0 0.0 0.0 
3574.42 741.953 -1474.73 -11.19238001 75.4686539019 21.2267630083 1.7256 -0.481265 -5.53127 1.7426 -0.128873 -5.55062 1.75534 0.875543 -5.48285 1.71342 2.86148e-05 -5.55211 -12.2567 11.5284 12.1506 -11.9505 14.1207 14.856 -0.0 0.0 -0.0 6.6543 9.32616 12.786 -22.6077 -23.7096 65.4982 1.97246 -44.3315 0.803639 -80.0037 -7.82231 5.27969 -3.20785 19.0265 -11.622 -0.0 0.0 -0.0 -1.69424 20.8087 6.10489 -26.7821 21.2172 -70.4017 0.53187 14.7606 -0.0688923 25.3039 -0.187471 3.20076 3.07935 -12.5804 -25.5364 0.0 0.0 0.0 -7.44117 -17.1921 -9.20206 -5.71849 0.192851 0.856069 40.7173 10.5509 -4.94335 -20.8742 0.0 0.0 -0.0 0.0 -0.0 10.6611 11.0258 -13.571 -8.17195 -0.249211 -1.22833 10.6591 -19.0397 1.54089 2.21334 -0.0 -0.0 0.0 0.0 0.0 
3574.42 741.953 -1474.73 -10.4090501791 74.3619416034 20.4155167944 1.7256 -0.481265 -5.53127 1.7426 -0.128873 -5.55062 1.75534 0.875543 -5.48285 1.71342 2.86148e-05 -5.55211 -12.2567 11.5284 12.1506 -11.9505 14.1207 14.856 -0.0 0.0 -0.0 6.6543 9.32616 12.786 -22.6077 -23.7096 65.4982 1.97246 -44.3315 0.803639 -80.0037 -7.82231 5.27969 -3.20785 19.0265 -11.622 -0.0 0.0 -0.0 -1.69424 20.8087 6.10489 -26.7821 21.2172 -70.4017 0.53187 14.7606 -0.0688923 25.3039 -0.187471 3.20076 3.07935 -12.5804 -25.5364 0.0 0.0 0.0 -7.44117 -17.1921 -9.20206 -5.71849 0.192851 0.856069 40.7173 10.5509 -4.94335 -20.8742 0.0 0.0 -0.0 0.0 -0.0 10.6611 11.0258 -13.571 -8.17195 -0.249211 -1.22833 10.6591 -19.0397 1.54089 2.21334 -0.0 -0.0 0.0 0.0 0.0 
3574.42 741.953 -1474.73 -9.52413234209 72.8819787627 19.4932506698 1.7256 -0.481265 -5.53127 1.7426 -0.128873 -5.55062 1.75534 0.875543 -5.48285 1.71342 2.86148e-05 -5.55211 -12.2567 11.5284 12.1506 -11.9505 14.1207 14.856 -0.0 0.0 -0.0 6.6543 9.32616 12.786 -22.6077 -23.7096 65.4982 1.97246 -44.3315 0.803639 -80.0037 -7.82231 5.27969 -3.20785 19.0265 -11.622 -0.0 0.0 -0.0 -1.69424 20.8087 6.10489 -26.7821 21.2172 -70.4017 0.53187 14.7606 -0.0688923 25.3039 -0.187471 3.20076 3.07935 -12.5804 -25.5364 0.0 0.0 0.0 -7.44117 -17.1921 -9.20206 -5.71849 0.192851 0.856069 40.7173 10.5509 -4.94335 -20.8742 0.0 0.0 -0.0 0.0 -0.0 10.6611 11.0258 -13.571 -8.17195 -0.249211 -1.22833 10.6591 -19.0397 1.54089 2.21334 -0.0 -0.0 0.0 0.0 0.0 
3574.42 741.953 -1474.73 -8.49571108397 70.7518224574 18.4109652072 1.7256 -0.481265 -5.53127 1.7426 -0.128873 -5.55062 1.75534 0.875543 -5.48285 1.71342 2.86148e-05 -5.55211 -12.2567 11.5284 12.1506 -11.9505 14.1207 14.856 -0.0 0.0 -0.0 6.6543 9.32616 12.786 -22.6077 -23.7096 65.4982 1.97246 -44.3315 0.803639 -80.0037 -7.82231 5.27969 -3.20785 19.0265 -11.622 -0.0 0.0 -0.0 -1.69424 20.8087 6.10489 -26.7821 21.2172 -70.4017 0.53187 14.7606 -0.0688923 25.3039 -0.187471 3.20076 3.07935 -12.5804 -25.5364 0.0 0.0 0.0 -7.44117 -17.1921 -9.20206 -5.71849 0.192851 0.856069 40.7173 10.5509 -4.94335 -20.8742 0.0 0.0 -0.0 0.0 -0.0 10.6611 11.0258 -13.571 -8.17195 -0.249211 -1.22833 10.6591 -19.0397 1.54089 2.21334 -0.0 -0.0 0.0 0.0 0.0 
3559.39369815 739.165 -1490.45804033 -4.39578046278 69.1715313752 13.7579752409 1.27877 -0.533345 -5.22207 1.29391 -0.200437 -5.24535 1.3144 0.78953 -5.18961 1.27684 -0.0388081 -5.24902 -12.7694 11.6167 9.7414 -12.6564 15.962 12.6817 -0.0 0.0 -0.0 6.48343 8.64456 12.4974 -23.5677 -23.1262 66.4184 1.73716 -40.7096 0.644526 -79.1614 -7.71536 5.29025 -3.23775 17.3028 -12.7822 -0.0 0.0 -0.0 -1.43385 21.6034 5.63113 -25.9723 22.1241 -69.9933 0.475266 13.2482 -0.0551932 23.9062 -0.214178 3.02421 3.29581 -12.6663 -27.1091 0.0 0.0 0.0 -7.84224 -18.1087 -9.76662 -7.53896 0.236197 1.13206 39.4135 11.4537 -4.83673 -21.6057 0.0 0.0 -0.0 0.0 -0.0 9.96618 12.6904 -13.7985 -10.9818 -0.294107 -1.65711 9.39457 -18.4309 1.3609 4.87699 -0.0 -0.0 0.0 0.0 0.0 
3543.19886233 733.663 -1503.61445711 -2.00306933248 67.790061254 11.1277886114 0.841151 -0.539572 -5.03324 0.855211 -0.218618 -5.05729 0.878174 0.77429 -5.00259 0.843269 -0.0244405 -5.06194 -11.9657 11.4314 7.55746 -11.9574 16.8337 10.4575 -0.0 0.0 -0.0 5.84476 9.32931 11.3382 -26.2326 -22.4746 67.2397 1.72723 -40.5474 0.638064 -78.5746 -7.64074 5.29667 -3.43116 16.8763 -14.2434 -0.0 0.0 -0.0 -1.36834 21.4764 5.4735 -25.0131 21.7391 -69.3969 0.472987 13.1869 -0.0546722 23.7464 -0.216956 3.00399 3.28143 -12.8608 -27.0644 0.0 0.0 0.0 -7.89639 -18.3855 -9.56881 -11.6387 0.301567 1.75763 41.3269 13.2573 -5.02491 -19.5369 0.0 0.0 -0.0 0.0 -0.0 8.22644 12.3424 -14.5168 -12.9415 -0.312948 -1.95718 16.3738 -23.4885 2.36349 5.0686 -0.0 -0.0 0.0 0.0 0.0 
3512.65194562 727.924 -1508.94618855 3.28716303774 72.7041769083 5.16735995657 0.454102 -0.552325 -4.56408 0.465649 -0.261094 -4.58991 0.490895 0.671616 -4.54809 0.462044 -0.0543112 -4.59699 -14.5978 10.5102 6.22383 -14.7063 16.3646 9.31132 -0.0 0.0 -0.0 5.60189 5.54946 10.913 -27.5823 -23.945 71.8884 1.10144 -28.617 0.280937 -74.8989 -7.17196 5.31929 -3.89113 16.5073 -17.4036 -0.0 0.0 -0.0 -1.4063 20.6252 5.45602 -23.0679 25.1218 -67.8029 0.515227 14.318 -0.0647143 24.5689 -0.202052 3.10801 2.88822 -17.0072 -25.4922 0.0 0.0 0.0 -8.24858 -17.7533 -8.69829 -13.2683 0.315091 2.00728 38.248 17.9023 -4.82025 -17.0313 0.0 0.0 -0.0 0.0 -0.0 5.46968 25.0209 -14.597 -14.8291 -0.321384 -2.24666 24.0966 -26.2974 3.42179 4.95254 -0.0 -0.0 0.0 0.0 0.0 
3488.59096614 719.323 -1518.19921493 10.6236754076 76.3930720441 -2.60406257401 -0.0245655 -0.296035 -4.32186 -0.0141776 -0.0206872 -4.33192 -0.00789902 0.892436 -4.23922 -0.0329065 0.212387 -4.32677 -14.8454 11.5016 6.12395 -15.0262 18.3635 9.59905 -0.0 0.0 -0.0 4.73299 4.77548 9.28741 -27.747 -23.878 74.0756 0.835684 -22.4881 0.16614 -72.6042 -6.87869 5.31802 -4.14613 15.7247 -19.5535 -0.0 0.0 -0.0 -1.09595 20.2385 4.73602 -20.0553 27.5474 -66.8791 0.738952 20.1054 -0.131 25.6669 -0.179832 3.2465 2.67897 -18.6172 -24.5068 0.0 0.0 0.0 -7.63543 -16.3943 -7.74583 -16.1342 0.321638 2.44691 38.4847 22.1154 -4.93726 -16.283 0.0 0.0 -0.0 0.0 -0.0 4.36848 27.6333 -15.3758 -17.4004 -0.317526 -2.64112 30.3633 -24.0845 4.12726 8.90632 -0.0 -0.0 0.0 0.0 0.0 
3482.05444496 714.744 -1520.54072846 13.7517006957 78.2688700972 -6.24440579516 -0.195799 -0.432402 -4.10055 -0.186463 -0.170823 -4.11972 -0.169202 0.711903 -4.06143 -0.192208 0.062109 -4.12278 -15.8333 12.8005 5.42414 -16.2008 21.414 9.61466 -0.0 0.0 -0.0 4.54664 3.48821 8.90307 -28.58 -24.0139 74.8921 0.756209 -20.5361 0.136993 -74.2585 -7.09013 5.32013 -4.57534 14.2221 -23.4091 -0.0 0.0 -0.0 -1.06088 18.851 4.49579 -17.6651 31.1961 -65.8415 0.778382 21.0859 -0.144871 24.0244 -0.212085 3.03918 1.97841 -23.5503 -21.2679 0.0 0.0 0.0 -8.09738 -16.2763 -7.31154 -15.7738 0.322024 2.3916 40.3314 22.9436 -5.13619 -16.2133 0.0 0.0 -0.0 0.0 -0.0 4.40212 29.0402 -15.7034 -19.0173 -0.306038 -2.88893 33.9366 -24.9985 4.54788 14.6164 -0.0 -0.0 0.0 0.0 0.0 
